<?xml version="1.0" encoding="utf-8"?><svg xmlns="http://www.w3.org/2000/svg" xmlns:xlink="http://www.w3.org/1999/xlink"><symbol viewBox="0 0 13 27" id="facebook" xmlns="http://www.w3.org/2000/svg"><path d="M8.502 26.111V13.054h3.604l.478-4.5H8.502l.006-2.251c0-1.174.111-1.803 1.797-1.803h2.253V0H8.953C4.623 0 3.1 2.183 3.1 5.854v2.701H.4v4.5h2.7V26.11h5.402z"/></symbol><symbol viewBox="0 0 22 22" id="instagram" xmlns="http://www.w3.org/2000/svg"><path fill-rule="evenodd" clip-rule="evenodd" d="M10.575.506h-.722V.504C7.467.506 7.01.523 5.829.575c-1.248.058-1.926.266-2.377.442a3.973 3.973 0 00-1.472.958 3.966 3.966 0 00-.958 1.472c-.175.45-.384 1.128-.44 2.376-.062 1.35-.074 1.753-.074 5.17 0 3.42.012 3.824.073 5.174.057 1.248.266 1.925.441 2.376.233.597.51 1.023.958 1.471.448.448.875.725 1.472.957.452.176 1.129.384 2.377.442 1.35.061 1.754.074 5.172.074 3.418 0 3.823-.013 5.173-.074 1.248-.057 1.925-.265 2.376-.441a3.958 3.958 0 001.471-.958c.448-.447.726-.873.958-1.47.175-.45.384-1.128.44-2.376.062-1.35.075-1.755.075-5.17 0-3.417-.013-3.822-.074-5.172-.057-1.248-.266-1.925-.441-2.376a3.972 3.972 0 00-.958-1.472 3.958 3.958 0 00-1.47-.957c-.452-.175-1.13-.384-2.377-.44C14.824.518 14.419.506 11 .506h-.426zM15.268 11a4.267 4.267 0 10-8.534 0 4.267 4.267 0 008.534 0zm2.566-8.368a1.536 1.536 0 100 3.073 1.536 1.536 0 000-3.074v.001zM4.428 11a6.574 6.574 0 1113.147 0 6.574 6.574 0 01-13.147 0z"/></symbol><symbol viewBox="0 0 14 25" id="next" xmlns="http://www.w3.org/2000/svg"><path d="M2.939 2.776l8.342 9.925-8.737 9.409"/></symbol><symbol viewBox="0 0 24 20" id="twitter" xmlns="http://www.w3.org/2000/svg"><path d="M11.281 5.507l.05.83-.839-.1c-3.055-.39-5.724-1.713-7.99-3.933l-1.11-1.101-.285.813C.504 3.83.89 5.745 2.148 7.033c.672.712.521.813-.637.39-.403-.136-.756-.238-.79-.187-.117.119.286 1.661.605 2.271.437.848 1.326 1.678 2.3 2.17l.823.39-.974.016c-.94 0-.974.017-.873.373.336 1.102 1.662 2.271 3.14 2.78l1.04.355-.906.543a9.452 9.452 0 01-4.5 1.254c-.755.017-1.376.085-1.376.136 0 .169 2.048 1.118 3.24 1.491 3.576 1.102 7.823.627 11.013-1.254 2.266-1.34 4.532-4 5.59-6.576.57-1.373 1.141-3.881 1.141-5.084 0-.78.05-.882.99-1.814.555-.542 1.075-1.135 1.176-1.305.168-.322.151-.322-.705-.034-1.427.509-1.628.44-.923-.322.52-.542 1.141-1.525 1.141-1.813 0-.051-.252.034-.537.186-.302.17-.974.424-1.477.576l-.907.289-.823-.56C18.466 1 17.83.66 17.494.56c-.857-.238-2.166-.204-2.938.067-2.099.763-3.425 2.729-3.274 4.881z"/></symbol></svg>