<svg width="22" height="22" viewBox="0 0 22 22" fill="none" xmlns="http://www.w3.org/2000/svg">
<path fill-rule="evenodd" clip-rule="evenodd" d="M10.5746 0.506493C10.3157 0.506377 10.0759 0.506269 9.85292 0.506618V0.503418C7.46729 0.506085 7.00969 0.522085 5.82887 0.575419C4.58086 0.632753 3.90325 0.840755 3.45205 1.01676C2.85471 1.24929 2.42804 1.52663 1.98003 1.97463C1.53203 2.42264 1.25416 2.84931 1.02216 3.44665C0.846955 3.89785 0.63842 4.57519 0.581352 5.82321C0.520018 7.17255 0.507751 7.57576 0.507751 10.9939C0.507751 14.4121 0.520018 14.8174 0.581352 16.1668C0.638153 17.4148 0.846955 18.0921 1.02216 18.5428C1.25469 19.1404 1.53203 19.566 1.98003 20.014C2.42804 20.462 2.85471 20.7394 3.45205 20.9714C3.90352 21.1466 4.58086 21.3551 5.82887 21.4127C7.17822 21.474 7.58329 21.4874 11.0012 21.4874C14.4188 21.4874 14.8242 21.474 16.1735 21.4127C17.4215 21.3556 18.0994 21.1476 18.5501 20.9716C19.1477 20.7396 19.573 20.4623 20.021 20.0143C20.469 19.5665 20.7469 19.1412 20.9789 18.5439C21.1541 18.0932 21.3626 17.4159 21.4197 16.1678C21.481 14.8185 21.4944 14.4132 21.4944 10.9971C21.4944 7.58109 21.481 7.17575 21.4197 5.82641C21.3629 4.57839 21.1541 3.90105 20.9789 3.45038C20.7464 2.85304 20.469 2.42637 20.021 1.97837C19.5733 1.53036 19.1474 1.25303 18.5501 1.02102C18.0989 0.845822 17.4215 0.637286 16.1735 0.580219C14.8239 0.518885 14.4188 0.506618 11.0012 0.506618L10.5746 0.506493ZM15.2679 11.0001C15.2679 8.6435 13.3575 6.73335 11.0012 6.73335C8.64464 6.73335 6.73448 8.6435 6.73448 11.0001C6.73448 13.3564 8.64464 15.2668 11.0012 15.2668C13.3575 15.2668 15.2679 13.3564 15.2679 11.0001ZM17.8338 2.63197C16.9858 2.63197 16.2978 3.31918 16.2978 4.16746C16.2978 5.01546 16.9858 5.70347 17.8338 5.70347C18.6818 5.70347 19.3698 5.01546 19.3698 4.16746C19.3698 3.31945 18.6818 2.63144 17.8338 2.63144V2.63197ZM4.42779 11.0001C4.42779 7.36998 7.37088 4.4268 11.0009 4.42666C14.6311 4.42666 17.5735 7.36989 17.5735 11.0001C17.5735 14.6302 14.6314 17.5721 11.0012 17.5721C7.37102 17.5721 4.42779 14.6302 4.42779 11.0001Z" fill="black"/>
</svg>
