<svg width="24" height="20" viewBox="0 0 24 20" fill="none" xmlns="http://www.w3.org/2000/svg">
<path d="M11.2812 5.5074L11.3316 6.33786L10.4922 6.23617C7.43686 5.84636 4.76765 4.52442 2.50134 2.30422L1.39336 1.2026L1.10798 2.01611C0.503625 3.82955 0.889738 5.74468 2.1488 7.03273C2.8203 7.74454 2.66921 7.84623 1.51088 7.42253C1.10798 7.28695 0.755438 7.18526 0.721863 7.2361C0.60435 7.35474 1.00725 8.89701 1.32621 9.50714C1.76269 10.3545 2.65243 11.185 3.6261 11.6765L4.44869 12.0663L3.47501 12.0832C2.53491 12.0832 2.50134 12.1002 2.60206 12.4561C2.93781 13.5577 4.26403 14.7271 5.74133 15.2356L6.78215 15.5915L5.87563 16.1338C4.53263 16.9134 2.9546 17.3541 1.37658 17.388C0.621138 17.4049 0 17.4727 0 17.5236C0 17.693 2.04808 18.6421 3.23999 19.015C6.81573 20.1166 11.063 19.6421 14.2526 17.7608C16.5189 16.4219 18.7852 13.7611 19.8428 11.185C20.4136 9.81221 20.9844 7.3039 20.9844 6.10058C20.9844 5.32097 21.0347 5.21929 21.9748 4.28714C22.5288 3.74481 23.0492 3.15162 23.15 2.98214C23.3178 2.66013 23.3011 2.66013 22.4449 2.94825C21.018 3.45669 20.8165 3.3889 21.5216 2.62624C22.042 2.0839 22.6631 1.10091 22.6631 0.812795C22.6631 0.761951 22.4113 0.846691 22.1259 0.999223C21.8238 1.1687 21.1523 1.42292 20.6486 1.57546L19.7421 1.86357L18.9195 1.30429C18.4663 0.999223 17.8283 0.660262 17.4926 0.558574C16.6364 0.321302 15.327 0.355198 14.5548 0.626366C12.4563 1.38903 11.1301 3.355 11.2812 5.5074Z" fill="black"/>
</svg>
